<svg xmlns="http://www.w3.org/2000/svg" width="2035.748" height="512" viewBox="0 0 2035.748 512">
  <g id="Group_3" data-name="Group 3" transform="translate(-3 -180)">
    <g id="Group_2" data-name="Group 2" transform="translate(-810)">
      <rect id="Rectangle_1" data-name="Rectangle 1" width="512" height="512" transform="translate(813 180)" fill="none"/>
      <g id="Group_1" data-name="Group 1" transform="translate(-54 -20.565)">
        <g id="Group_2-2" data-name="Group 2" transform="translate(889 257.565)">
          <g id="Group_1-2" data-name="Group 1" transform="translate(0 0)">
            <path id="Path_1" data-name="Path 1" d="M559.377,145.249,662.5,323.818h48.588L559.377,61.087,367.529,380.7h48.588Z" transform="translate(-367.529 17.601)"/>
            <g id="Group_1-3" data-name="Group 1" transform="translate(70.588)">
              <path id="Path_2" data-name="Path 2" d="M589.782,0,565.308,41.977,590.94,86.371,616.168,45.8Z" transform="translate(-424.396)" fill="#ef0000"/>
              <path id="Path_3" data-name="Path 3" d="M640.317,62.318l-26.428,42.531L756.45,350.884,462.7,351.06l-26.743,45.072,396.727.258Z" transform="translate(-435.955 1.969)" fill="#ef0000"/>
            </g>
          </g>
        </g>
      </g>
    </g>
    <path id="Path_1-2" data-name="Path 1" d="M95.758-30.176H42.85L32.791,0H.7L55.222-146.453H83.185L138,0H105.917ZM51-54.618H87.61L69.2-109.437ZM208.716-30.075a9.743,9.743,0,0,0-.905-4.225,9.236,9.236,0,0,0-3.42-3.571,31.409,31.409,0,0,0-6.84-3.168,89.949,89.949,0,0,0-11.165-2.917,105.949,105.949,0,0,1-15.44-4.526,47.627,47.627,0,0,1-12.271-6.739,30.125,30.125,0,0,1-8.1-9.354,25.367,25.367,0,0,1-2.917-12.372,29.429,29.429,0,0,1,2.967-12.976,32.5,32.5,0,0,1,8.55-10.813,41.683,41.683,0,0,1,13.68-7.393,57.237,57.237,0,0,1,18.256-2.716,64.191,64.191,0,0,1,19.011,2.615,43.392,43.392,0,0,1,14.333,7.292,32.332,32.332,0,0,1,9.053,11.115,31.451,31.451,0,0,1,3.168,14.082H207.609a14.065,14.065,0,0,0-4.023-10.31q-4.023-4.074-12.573-4.074-7.343,0-11.366,3.319a10.478,10.478,0,0,0-4.023,8.449,8.509,8.509,0,0,0,1.056,4.275,10.366,10.366,0,0,0,3.42,3.42,27.308,27.308,0,0,0,6.236,2.867,76.078,76.078,0,0,0,9.505,2.414,129.662,129.662,0,0,1,16.4,4.225,47.79,47.79,0,0,1,13.026,6.488,29.163,29.163,0,0,1,8.6,9.656,28.166,28.166,0,0,1,3.118,13.73,28.063,28.063,0,0,1-3.219,13.328,31.129,31.129,0,0,1-9.2,10.511A46.229,46.229,0,0,1,210.124-.5a66.2,66.2,0,0,1-18.91,2.515A58.408,58.408,0,0,1,171-1.207,46.536,46.536,0,0,1,156.26-9.656a35.205,35.205,0,0,1-9-11.769A31.183,31.183,0,0,1,144.24-34.6H171.8a16.838,16.838,0,0,0,1.861,7.292,14.3,14.3,0,0,0,4.375,4.979,18.865,18.865,0,0,0,6.287,2.816,30.385,30.385,0,0,0,7.494.905q8.349,0,12.624-3.168A9.859,9.859,0,0,0,208.716-30.075Zm75.339-66.89a39.553,39.553,0,0,1,12.724-10.209,35.835,35.835,0,0,1,16.345-3.671,45.287,45.287,0,0,1,14.686,2.263,27.331,27.331,0,0,1,11.366,7.343,34.17,34.17,0,0,1,7.292,13.126A64.791,64.791,0,0,1,349.033-68.6V0H319.964V-68.8a28.377,28.377,0,0,0-1.157-8.751,13.8,13.8,0,0,0-3.37-5.683,12.428,12.428,0,0,0-5.482-3.068,27.728,27.728,0,0,0-7.393-.905A22.105,22.105,0,0,0,291.2-84.542a19.59,19.59,0,0,0-7.142,7.192V0H254.985V-154.5h29.069ZM401.64,0H372.47V-154.5h29.17Zm74.031,2.012a59.078,59.078,0,0,1-22.682-4.124,50.221,50.221,0,0,1-17-11.266,48.307,48.307,0,0,1-10.662-16.748,57.125,57.125,0,0,1-3.671-20.57v-3.923A68.917,68.917,0,0,1,425.227-77.3a52.22,52.22,0,0,1,10.159-17.753,45.969,45.969,0,0,1,15.993-11.618,51.4,51.4,0,0,1,21.073-4.174,51.8,51.8,0,0,1,20.721,3.873A41.426,41.426,0,0,1,508.21-96.11a46.193,46.193,0,0,1,9.153,16.848,73.585,73.585,0,0,1,3.068,21.928v12.372h-69.3a30.305,30.305,0,0,0,2.867,9.656,25,25,0,0,0,5.532,7.393,24.4,24.4,0,0,0,7.9,4.778,28.57,28.57,0,0,0,10.159,1.71,36.037,36.037,0,0,0,14.686-2.967,29.609,29.609,0,0,0,11.567-9.2L518.118-17.6a43.137,43.137,0,0,1-6.538,7.242,44.343,44.343,0,0,1-9.254,6.287A54.541,54.541,0,0,1,490.306.352,60.719,60.719,0,0,1,475.671,2.012Zm-3.319-89.32a19.5,19.5,0,0,0-8.3,1.66,18.106,18.106,0,0,0-6.136,4.627,24.159,24.159,0,0,0-4.174,7.091,40.623,40.623,0,0,0-2.313,9.153h40.436v-2.313a29.3,29.3,0,0,0-1.257-8.047,17.646,17.646,0,0,0-3.521-6.437,15.814,15.814,0,0,0-6.035-4.225A22.818,22.818,0,0,0,472.352-87.309ZM576.257-41.14l20.117-67.694h31.182L584,16.295a93.984,93.984,0,0,1-3.873,8.952,35.379,35.379,0,0,1-6.387,9,33.018,33.018,0,0,1-9.958,6.94A34.407,34.407,0,0,1,549.2,43.956q-2.012,0-3.621-.151t-3.118-.352a28.936,28.936,0,0,1-2.967-.553q-1.459-.352-3.168-.855V20.017q1.106,0,2.263.05t2.163.05a36.006,36.006,0,0,0,7.393-.654,15.3,15.3,0,0,0,5.281-2.112,13.376,13.376,0,0,0,3.722-3.671,23.8,23.8,0,0,0,2.615-5.23L562.879.3,524.757-108.834h31.282Zm175.02-105.313h30.176V-45.062a49.922,49.922,0,0,1-3.722,19.715,42.591,42.591,0,0,1-10.31,14.836,45.011,45.011,0,0,1-15.591,9.3,57.4,57.4,0,0,1-19.463,3.219A68.207,68.207,0,0,1,712.6-.7,42.5,42.5,0,0,1,697.061-9a38,38,0,0,1-10.209-14.082q-3.671-8.5-3.671-20.167h30.377a32.593,32.593,0,0,0,1.308,9.958,15.971,15.971,0,0,0,3.772,6.488,14.02,14.02,0,0,0,5.935,3.521,26.735,26.735,0,0,0,7.8,1.056q8.65,0,13.78-5.935t5.13-16.9ZM868.459,0a32.282,32.282,0,0,1-2.917-9.757,37.941,37.941,0,0,1-11.115,8.349q-6.689,3.42-16.345,3.42A43.376,43.376,0,0,1,823.447-.4a36.248,36.248,0,0,1-11.769-6.739,30.984,30.984,0,0,1-7.8-10.31,30.438,30.438,0,0,1-2.816-13.126,34.853,34.853,0,0,1,3.168-15.188,29.667,29.667,0,0,1,9.505-11.266,45.708,45.708,0,0,1,15.742-7.041,88.523,88.523,0,0,1,21.877-2.414h12.976v-6.236q0-7.544-3.873-12.07T848.241-89.32q-7.343,0-11.517,3.521a11.96,11.96,0,0,0-4.174,9.656H803.48a28.786,28.786,0,0,1,3.269-13.378,33.526,33.526,0,0,1,9.3-11.064,46.743,46.743,0,0,1,14.585-7.494,61.9,61.9,0,0,1,19.111-2.766,60.672,60.672,0,0,1,17.5,2.414,39.567,39.567,0,0,1,13.881,7.192,32.712,32.712,0,0,1,9.1,11.97A40.124,40.124,0,0,1,893.5-72.522v46.068q0,4.627.3,8.3t.8,6.639a34.465,34.465,0,0,0,1.308,5.331A31.52,31.52,0,0,0,897.83-1.71V0Zm-24.04-20.218a25,25,0,0,0,6.89-.905,24.933,24.933,0,0,0,5.683-2.364,20.215,20.215,0,0,0,4.375-3.37,18.32,18.32,0,0,0,2.967-3.923V-49.488h-11.97a35.093,35.093,0,0,0-9.958,1.257,19.307,19.307,0,0,0-6.94,3.521,14.062,14.062,0,0,0-4.023,5.331,16.882,16.882,0,0,0-1.308,6.689,11.638,11.638,0,0,0,3.822,8.952Q837.78-20.218,844.419-20.218ZM954.963-41.14l20.117-67.694h31.182L962.708,16.295a93.984,93.984,0,0,1-3.873,8.952,35.379,35.379,0,0,1-6.387,9,33.018,33.018,0,0,1-9.958,6.94,34.407,34.407,0,0,1-14.585,2.766q-2.012,0-3.621-.151t-3.118-.352A28.936,28.936,0,0,1,918.2,42.9q-1.459-.352-3.168-.855V20.017q1.106,0,2.263.05t2.163.05a36.006,36.006,0,0,0,7.393-.654,15.3,15.3,0,0,0,5.281-2.112,13.376,13.376,0,0,0,3.722-3.671,23.8,23.8,0,0,0,2.615-5.23L941.585.3,903.463-108.834h31.282Zm89.521-67.694.905,12.573a38.178,38.178,0,0,1,13.579-10.813,40.763,40.763,0,0,1,17.7-3.772,43.4,43.4,0,0,1,14.082,2.163,25.867,25.867,0,0,1,10.863,7.091,33.3,33.3,0,0,1,6.991,12.875,66.632,66.632,0,0,1,2.464,19.514V0H1082V-69.4a27.4,27.4,0,0,0-1.157-8.65,12.632,12.632,0,0,0-3.37-5.432,12.813,12.813,0,0,0-5.432-2.867,29.127,29.127,0,0,0-7.443-.855,20.613,20.613,0,0,0-11.014,2.816,21.558,21.558,0,0,0-7.393,7.645V0h-29.069V-108.834ZM1183.192,2.012a59.078,59.078,0,0,1-22.682-4.124,50.221,50.221,0,0,1-17-11.266,48.307,48.307,0,0,1-10.662-16.748,57.124,57.124,0,0,1-3.671-20.57v-3.923a68.918,68.918,0,0,1,3.571-22.682,52.22,52.22,0,0,1,10.159-17.753,45.968,45.968,0,0,1,15.993-11.618,51.4,51.4,0,0,1,21.073-4.174,51.8,51.8,0,0,1,20.721,3.873,41.426,41.426,0,0,1,15.038,10.863,46.193,46.193,0,0,1,9.153,16.848,73.583,73.583,0,0,1,3.068,21.928v12.372h-69.3a30.3,30.3,0,0,0,2.867,9.656,25,25,0,0,0,5.532,7.393,24.4,24.4,0,0,0,7.9,4.778,28.57,28.57,0,0,0,10.159,1.71,36.037,36.037,0,0,0,14.686-2.967,29.61,29.61,0,0,0,11.567-9.2L1225.64-17.6a43.14,43.14,0,0,1-6.538,7.242,44.342,44.342,0,0,1-9.254,6.287,54.541,54.541,0,0,1-12.02,4.426A60.719,60.719,0,0,1,1183.192,2.012Zm-3.319-89.32a19.5,19.5,0,0,0-8.3,1.66,18.106,18.106,0,0,0-6.136,4.627,24.159,24.159,0,0,0-4.174,7.091,40.623,40.623,0,0,0-2.313,9.153h40.436v-2.313a29.3,29.3,0,0,0-1.257-8.047,17.646,17.646,0,0,0-3.521-6.437,15.813,15.813,0,0,0-6.035-4.225A22.818,22.818,0,0,0,1179.873-87.309Zm123.52,57.233a9.743,9.743,0,0,0-.905-4.225,9.237,9.237,0,0,0-3.42-3.571,31.409,31.409,0,0,0-6.84-3.168,89.944,89.944,0,0,0-11.165-2.917,105.947,105.947,0,0,1-15.44-4.526,47.627,47.627,0,0,1-12.271-6.739,30.125,30.125,0,0,1-8.1-9.354,25.366,25.366,0,0,1-2.917-12.372,29.43,29.43,0,0,1,2.967-12.976,32.5,32.5,0,0,1,8.55-10.813,41.683,41.683,0,0,1,13.68-7.393,57.237,57.237,0,0,1,18.256-2.716,64.191,64.191,0,0,1,19.011,2.615,43.392,43.392,0,0,1,14.333,7.292,32.332,32.332,0,0,1,9.053,11.115,31.45,31.45,0,0,1,3.168,14.082h-29.069a14.066,14.066,0,0,0-4.023-10.31q-4.023-4.074-12.573-4.074-7.343,0-11.366,3.319a10.478,10.478,0,0,0-4.023,8.449,8.509,8.509,0,0,0,1.056,4.275,10.366,10.366,0,0,0,3.42,3.42,27.308,27.308,0,0,0,6.236,2.867,76.074,76.074,0,0,0,9.505,2.414,129.664,129.664,0,0,1,16.4,4.225,47.791,47.791,0,0,1,13.026,6.488,29.162,29.162,0,0,1,8.6,9.656,28.166,28.166,0,0,1,3.118,13.73,28.062,28.062,0,0,1-3.219,13.328,31.13,31.13,0,0,1-9.2,10.511A46.228,46.228,0,0,1,1304.8-.5a66.2,66.2,0,0,1-18.91,2.515,58.408,58.408,0,0,1-20.218-3.219,46.536,46.536,0,0,1-14.736-8.449,35.206,35.206,0,0,1-9-11.769,31.183,31.183,0,0,1-3.018-13.177h27.561a16.839,16.839,0,0,0,1.861,7.292,14.3,14.3,0,0,0,4.375,4.979A18.865,18.865,0,0,0,1279-19.514a30.384,30.384,0,0,0,7.494.905q8.349,0,12.624-3.168A9.859,9.859,0,0,0,1303.393-30.075Z" transform="translate(511.296 441)"/>
    <path id="Path_2-2" data-name="Path 2" d="M55.055-36.42H20.447V0H9.572V-82.469h51.09v8.893H20.447v28.264H55.055Zm48.881,3.059H84.564V0H73.633V-82.469h27.3q13.934,0,21.438,6.344t7.5,18.465a22.2,22.2,0,0,1-4.163,13.424,24.851,24.851,0,0,1-11.583,8.553L133.5-.68V0H121.834ZM84.564-42.254h16.709q8.1,0,12.886-4.2a14.2,14.2,0,0,0,4.786-11.236q0-7.66-4.56-11.745t-13.169-4.142H84.564Zm123.986,3.682a51.016,51.016,0,0,1-4.078,21.155A30.89,30.89,0,0,1,192.918-3.625a31.79,31.79,0,0,1-17.445,4.758A31.519,31.519,0,0,1,158.2-3.653,31.628,31.628,0,0,1,146.5-17.3a48.949,48.949,0,0,1-4.276-20.532v-5.947A50.409,50.409,0,0,1,146.359-64.8a31.517,31.517,0,0,1,11.7-13.962,31.384,31.384,0,0,1,17.3-4.843,31.969,31.969,0,0,1,17.474,4.786,30.833,30.833,0,0,1,11.64,13.877,51.263,51.263,0,0,1,4.078,21.155ZM197.732-43.9q0-14.67-5.891-22.515t-16.482-7.845q-10.309,0-16.228,7.845t-6.089,21.778v6.061q0,14.217,5.976,22.345T175.473-8.1q10.535,0,16.313-7.675t5.947-22ZM288.244,0H277.313L235.795-63.551V0H224.863V-82.469h10.932l41.631,63.834V-82.469h10.818ZM362.9-73.576H336.389V0H325.57V-73.576H299.119v-8.893H362.9Zm19.258,42.82H354.514v-8.553h27.641Zm58.453-7.363h-35.74V-8.893h41.518V0H393.992V-82.469h51.826v8.893H404.867v26.564h35.74ZM523.3,0H512.371L470.854-63.551V0H459.922V-82.469h10.932l41.631,63.834V-82.469H523.3Zm19.314,0V-82.469H565.9a37.475,37.475,0,0,1,19.031,4.758A32.178,32.178,0,0,1,597.7-64.174a44.062,44.062,0,0,1,4.56,20.164v5.268a44.217,44.217,0,0,1-4.5,20.447A31.674,31.674,0,0,1,584.9-4.814,39.862,39.862,0,0,1,565.443,0Zm10.875-73.576V-8.893h11.441q12.574,0,19.569-7.823t7-22.28v-4.819q0-14.058-6.6-21.854t-18.72-7.908ZM665.188-26l1.586,10.875,2.322-9.8,16.313-57.547h9.176L710.5-24.922l2.266,9.969,1.756-11.1,12.8-56.414h10.932L718.26,0h-9.912L691.355-60.1l-1.3-6.287-1.3,6.287L671.135,0h-9.912L641.285-82.469H652.16ZM796.934-38.119h-35.74V-8.893h41.518V0H750.318V-82.469h51.826v8.893H761.193v26.564h35.74ZM816.248,0V-82.469h26.961q13.424,0,20.192,5.551t6.769,16.426a16.751,16.751,0,0,1-3.285,10.224,21.3,21.3,0,0,1-8.949,6.882A19.126,19.126,0,0,1,868.5-36.278a20.4,20.4,0,0,1,3.88,12.489q0,11.1-7.193,17.445T844.852,0Zm10.875-38.572v29.68h17.955q7.59,0,11.979-3.937t4.39-10.847q0-14.9-16.2-14.9Zm0-8.723h16.426q7.137,0,11.413-3.576a11.988,11.988,0,0,0,4.276-9.706q0-6.812-3.965-9.905t-12.064-3.094H827.123ZM917.182,0V-82.469h23.279a37.475,37.475,0,0,1,19.031,4.758,32.178,32.178,0,0,1,12.772,13.537,44.062,44.062,0,0,1,4.56,20.164v5.268a44.217,44.217,0,0,1-4.5,20.447,31.674,31.674,0,0,1-12.857,13.48A39.862,39.862,0,0,1,940.008,0Zm10.875-73.576V-8.893H939.5q12.574,0,19.569-7.823t7-22.28v-4.819q0-14.058-6.6-21.854t-18.72-7.908Zm111.809,35.457h-35.74V-8.893h41.518V0H993.25V-82.469h51.826v8.893h-40.951v26.564h35.74Zm46.615,23.676,23.563-68.025h11.895L1091.352,0h-9.629l-30.529-82.469h11.838ZM1179.6-38.119h-35.74V-8.893h41.518V0h-52.393V-82.469h51.826v8.893h-40.951v26.564h35.74Zm30.246,29.227h39.082V0h-50.014V-82.469h10.932Zm111.242-29.68a51.016,51.016,0,0,1-4.078,21.155,30.89,30.89,0,0,1-11.555,13.792,31.79,31.79,0,0,1-17.445,4.758,31.519,31.519,0,0,1-17.275-4.786,31.629,31.629,0,0,1-11.7-13.65,48.95,48.95,0,0,1-4.276-20.532v-5.947a50.41,50.41,0,0,1,4.135-21.014,31.517,31.517,0,0,1,11.7-13.962,31.384,31.384,0,0,1,17.3-4.843,31.969,31.969,0,0,1,17.474,4.786,30.833,30.833,0,0,1,11.64,13.877,51.263,51.263,0,0,1,4.078,21.155ZM1310.268-43.9q0-14.67-5.891-22.515t-16.482-7.845q-10.309,0-16.228,7.845t-6.089,21.778v6.061q0,14.217,5.976,22.345T1288.008-8.1q10.535,0,16.313-7.675t5.947-22Zm38.006,11.611V0H1337.4V-82.469h30.416q13.537,0,21.212,6.91t7.675,18.295q0,12.008-7.5,18.493t-21.5,6.485Zm0-8.893h19.541q8.723,0,13.367-4.114t4.645-11.887q0-7.376-4.645-11.8t-12.744-4.6h-20.164Zm108.92,3.059h-35.74V-8.893h41.518V0h-52.393V-82.469H1462.4v8.893h-40.951v26.564h35.74Zm49.561,4.758h-19.371V0h-10.932V-82.469h27.3q13.934,0,21.438,6.344t7.5,18.465a22.2,22.2,0,0,1-4.163,13.424,24.851,24.851,0,0,1-11.583,8.553l19.371,35V0h-11.668Zm-19.371-8.893h16.709q8.1,0,12.886-4.2a14.2,14.2,0,0,0,4.786-11.236q0-7.66-4.56-11.745t-13.169-4.142h-16.652Z" transform="translate(502.428 634)"/>
  </g>
</svg>
